<?xml version="1.0" encoding="UTF-8" standalone="no"?>
<!-- Created with Inkscape (http://www.inkscape.org/) -->

<svg
   width="75.155998mm"
   height="75.155998mm"
   viewBox="0 0 75.155998 75.155998"
   version="1.1"
   id="svg1"
   inkscape:version="1.3.2 (091e20ef0f, 2023-11-25)"
   sodipodi:docname="logo.svg"
   inkscape:export-filename="hollo.png"
   inkscape:export-xdpi="168.98186"
   inkscape:export-ydpi="168.98186"
   xmlns:inkscape="http://www.inkscape.org/namespaces/inkscape"
   xmlns:sodipodi="http://sodipodi.sourceforge.net/DTD/sodipodi-0.dtd"
   xmlns="http://www.w3.org/2000/svg"
   xmlns:svg="http://www.w3.org/2000/svg">
  <sodipodi:namedview
     id="namedview1"
     pagecolor="#ffffff"
     bordercolor="#000000"
     borderopacity="0.25"
     inkscape:showpageshadow="2"
     inkscape:pageopacity="0.0"
     inkscape:pagecheckerboard="0"
     inkscape:deskcolor="#d1d1d1"
     inkscape:document-units="mm"
     inkscape:zoom="2.0756874"
     inkscape:cx="160.66967"
     inkscape:cy="190.2984"
     inkscape:window-width="1499"
     inkscape:window-height="1216"
     inkscape:window-x="26"
     inkscape:window-y="23"
     inkscape:window-maximized="0"
     inkscape:current-layer="g5"
     inkscape:export-bgcolor="#ffffffff" />
  <defs
     id="defs1">
    <rect
       x="371.22491"
       y="455.98975"
       width="114.42369"
       height="43.381714"
       id="rect2" />
  </defs>
  <g
     inkscape:label="Layer 1"
     inkscape:groupmode="layer"
     id="layer1">
    <g
       id="g3"
       transform="matrix(0.95518407,0,0,0.95518407,41.233688,-43.063485)">
      <g
         id="g4"
         transform="matrix(1.4285658,0,0,1.4285658,-112.98154,-95.182896)">
        <g
           id="g5"
           transform="translate(0.30119891,0.32758198)">
          <circle
             style="fill:#000000;stroke:#000000;stroke-width:0.0867594"
             id="path1"
             cx="-76.10685"
             cy="-125.39847"
             transform="scale(-1)"
             r="18.701208" />
          <path
             style="font-weight:bold;font-size:12.7px;font-family:'Droid Sans Armenian';-inkscape-font-specification:'Droid Sans Armenian';white-space:pre"
             d="m 58.987489,117.0043 -0.49263,1.85335 -3.780333,-1.00484 -0.923274,3.47349 3.780334,1.00484 -0.49263,1.85334 -8.7635,-2.32939 0.492629,-1.85334 3.436667,0.91348 0.923274,-3.47349 -3.436667,-0.91348 0.49263,-1.85335 z m 2.827525,-8.89816 q 0.64364,0.57579 0.984419,1.20441 0.349246,0.61915 0.403101,1.26373 0.05286,0.62665 -0.182209,1.25133 -0.244531,0.61622 -0.769514,1.20307 -0.482646,0.53952 -1.067928,0.8509 -0.586279,0.29346 -1.223392,0.31991 -0.646577,0.018 -1.317588,-0.24148 -0.662542,-0.26893 -1.306183,-0.84472 -0.861342,-0.77054 -1.177231,-1.59842 -0.325355,-0.83634 -0.129661,-1.68368 0.195693,-0.84734 0.890026,-1.6235 0.651995,-0.72883 1.463931,-1.00785 0.811936,-0.27903 1.696144,-0.0674 0.874743,0.20316 1.736085,0.9737 z m -3.192238,3.56842 q 0.511126,0.45725 0.954485,0.66642 0.44236,0.19125 0.833888,0.1155 0.382062,-0.0842 0.720761,-0.46283 0.338699,-0.37861 0.371543,-0.75819 0.03185,-0.39752 -0.215763,-0.80647 -0.248606,-0.42688 -0.759732,-0.88412 -0.511126,-0.45724 -0.953487,-0.64849 -0.433893,-0.20071 -0.815955,-0.11649 -0.382062,0.0842 -0.720761,0.46283 -0.499581,0.55845 -0.340126,1.16118 0.158458,0.5848 0.925147,1.27066 z m 8.893099,-2.91417 -1.635374,0.95203 -4.855966,-8.34151 1.635374,-0.95202 z m 3.605821,-1.41126 -1.796222,0.5953 -3.036448,-9.161937 1.796221,-0.595303 z m 8.205972,-4.15222 q 0.0054,0.86358 -0.231697,1.53818 -0.224391,0.67451 -0.665947,1.14718 -0.428936,0.45989 -1.049717,0.70507 -0.62086,0.23248 -1.408244,0.2374 -0.723886,0.005 -1.347602,-0.22019 -0.611095,-0.23748 -1.058442,-0.6919 -0.447427,-0.46711 -0.705626,-1.13861 -0.2455,-0.67158 -0.250894,-1.53517 -0.0072,-1.15567 0.394255,-1.9456 0.401394,-0.80262 1.160762,-1.22647 0.759367,-0.423853 1.800747,-0.430357 0.977881,-0.0061 1.729784,0.408307 0.751903,0.41441 1.188692,1.21179 0.43671,0.78469 0.443929,1.94037 z m -4.787807,0.0299 q 0.0043,0.68578 0.146916,1.1548 0.155253,0.45624 0.474254,0.69555 0.318922,0.22661 0.826912,0.22344 0.50799,-0.003 0.811356,-0.23367 0.315987,-0.24328 0.452828,-0.70134 0.149462,-0.47085 0.145178,-1.15663 -0.0043,-0.68579 -0.159536,-1.14203 -0.142553,-0.45632 -0.461475,-0.68293 -0.318921,-0.22661 -0.826912,-0.22344 -0.749285,0.005 -1.088926,0.52751 -0.32702,0.51006 -0.320595,1.53874 z"
             id="text2"
             transform="translate(0.55399444)"
             aria-label="Hollo" />
        </g>
      </g>
    </g>
  </g>
</svg>
